<svg width="29" height="22" viewBox="0 0 29 22" fill="none" xmlns="http://www.w3.org/2000/svg">
<path d="M2.70209 21.2549H7.19166V10.3508L0.77832 5.54077V19.3305C0.778243 19.5832 0.827965 19.8335 0.924646 20.067C1.02133 20.3005 1.16307 20.5127 1.34178 20.6914C1.52049 20.8701 1.73266 21.0119 1.96617 21.1085C2.19967 21.2052 2.44936 21.2549 2.70209 21.2549Z" fill="#4285F4"/>
<path d="M22.5854 21.2549H27.075C27.3278 21.255 27.5781 21.2054 27.8117 21.1087C28.0453 21.0121 28.2575 20.8703 28.4363 20.6916C28.6151 20.5129 28.7569 20.3007 28.8536 20.0672C28.9503 19.8336 29 19.5833 29 19.3305V5.54077L22.5854 10.3508" fill="#34A853"/>
<path d="M22.5854 2.01309V10.3508L28.9994 5.54078V2.97497C28.9994 0.595544 26.2831 -0.761441 24.3816 0.666098" fill="#FBBC04"/>
<path d="M7.19165 10.3514V2.01251L14.8891 7.78558L22.5853 2.0131V10.3508L14.8891 16.1233" fill="#EA4335"/>
<path d="M0.77842 2.97497V5.54078L7.19176 10.3508V2.01309L5.39617 0.666098C3.49121 -0.761441 0.777832 0.595544 0.777832 2.97497" fill="#C5221F"/>
</svg>
