<svg width="382" height="125" viewBox="0 0 382 125" fill="none" xmlns="http://www.w3.org/2000/svg">
<path d="M93.7478 44.1467H49.26V57.3474H80.8137C79.2502 75.8248 63.8536 83.7558 49.3133 83.7558C44.707 83.7761 40.1428 82.8785 35.8872 81.1154C31.6316 79.3524 27.7699 76.7592 24.5274 73.4874C21.285 70.2155 18.7269 66.3305 17.0024 62.0591C15.2779 57.7878 14.4216 53.2157 14.4834 48.6097C14.4834 28.6257 29.9547 13.2398 49.3559 13.2398C64.3226 13.2398 73.142 22.7805 73.142 22.7805L82.3807 13.2078C82.3807 13.2078 70.5125 0 48.8727 0C21.3165 0 0 23.2566 0 48.3752C0 72.9892 20.0515 96.992 49.5691 96.992C75.5334 96.992 94.5402 79.204 94.5402 52.9022C94.5402 47.3518 93.7336 44.1467 93.7336 44.1467H93.7478Z" fill="#2B2833"/>
<path d="M130.195 34.5846C111.938 34.5846 98.8542 48.8584 98.8542 65.4987C98.8542 82.3913 111.54 96.928 130.408 96.928C147.485 96.928 161.475 83.8766 161.475 65.8611C161.475 45.2517 145.2 34.5811 130.195 34.5811V34.5846ZM130.372 46.8294C139.348 46.8294 147.855 54.0889 147.855 65.783C147.855 77.2247 139.384 84.6938 130.33 84.6938C120.38 84.6938 112.563 76.7272 112.563 65.6906C112.563 54.8884 120.309 46.8294 130.401 46.8294H130.372Z" fill="#2B2833"/>
<path d="M198.351 34.5846C180.094 34.5846 167.011 48.8584 167.011 65.4987C167.011 82.3913 179.696 96.928 198.564 96.928C215.642 96.928 229.631 83.8766 229.631 65.8611C229.631 45.2517 213.357 34.5811 198.351 34.5811V34.5846ZM198.529 46.8294C207.505 46.8294 216.011 54.0889 216.011 65.783C216.011 77.2247 207.54 84.6938 198.486 84.6938C188.537 84.6938 180.719 76.7272 180.719 65.6906C180.719 54.8884 188.466 46.8294 198.557 46.8294H198.529Z" fill="#2B2833"/>
<path d="M265.2 34.6202C248.443 34.6202 235.274 49.2955 235.274 65.7688C235.274 84.5305 250.543 96.9743 264.909 96.9743C273.792 96.9743 278.518 93.4458 281.965 89.3986V95.5458C281.965 106.302 275.434 112.744 265.577 112.744C256.054 112.744 251.278 105.662 249.587 101.647L237.605 106.622C241.855 115.612 250.411 124.982 265.676 124.982C282.377 124.982 295.034 114.489 295.034 92.4793V36.4929H282.015V41.7731C277.999 37.438 272.499 34.6202 265.207 34.6202H265.2ZM266.408 46.8437C274.624 46.8437 283.059 53.858 283.059 65.8364C283.059 78.0137 274.638 84.7224 266.227 84.7224C257.294 84.7224 248.983 77.4736 248.983 65.9501C248.983 53.9824 257.617 46.8437 266.408 46.8437Z" fill="#2B2833"/>
<path d="M353.224 34.5457C337.418 34.5457 324.147 47.1245 324.147 65.6729C324.147 85.3087 338.939 96.953 354.705 96.953C367.895 96.953 376.026 89.7397 380.823 83.2726L370.045 76.102C367.249 80.4371 362.573 84.6833 354.773 84.6833C346.01 84.6833 341.981 79.8863 339.483 75.2314L381.281 57.8911L379.149 52.8098C375.112 42.8605 365.689 34.5457 353.224 34.5457ZM353.767 46.5346C359.463 46.5346 363.56 49.5621 365.302 53.1936L337.386 64.8592C336.178 55.8266 344.742 46.5346 353.732 46.5346H353.767Z" fill="#2B2833"/>
<path d="M304.187 95.1052H317.917V3.22644H304.187V95.1052Z" fill="#2B2833"/>
</svg>
