<svg width="41" height="16" viewBox="0 0 41 16" fill="none" xmlns="http://www.w3.org/2000/svg">
<path d="M9.89186 10.489C9.89186 11.8553 9.48654 12.9438 8.67588 13.7544C7.76502 14.7199 6.56725 15.2027 5.08256 15.2027C3.66163 15.2027 2.4593 14.7108 1.47558 13.7271C0.491861 12.7434 0 11.5319 0 10.0928C0 8.65365 0.491861 7.44221 1.47558 6.45849C2.4593 5.47477 3.66163 4.98291 5.08256 4.98291C5.80213 4.98291 6.48072 5.11043 7.11832 5.36547C7.75591 5.62051 8.27966 5.98029 8.68954 6.44483L7.78779 7.34657C7.48721 6.98223 7.09782 6.69759 6.61963 6.49265C6.14143 6.28771 5.62907 6.18524 5.08256 6.18524C4.01686 6.18524 3.11512 6.55413 2.37733 7.29192C1.64864 8.03882 1.2843 8.97245 1.2843 10.0928C1.2843 11.2131 1.64864 12.1468 2.37733 12.8937C3.11512 13.6315 4.01686 14.0004 5.08256 14.0004C6.05717 14.0004 6.86783 13.7271 7.51454 13.1806C8.16124 12.6341 8.53469 11.8826 8.63489 10.9262H5.08256V9.75123H9.82355C9.86909 10.0063 9.89186 10.2522 9.89186 10.489Z" fill="url(#paint0_radial_38_147)"/>
<path d="M13.8371 8.09845C14.84 8.09845 15.6382 8.42277 16.2316 9.07142C16.8251 9.72006 17.1218 10.6286 17.1218 11.7971L17.108 11.9351H11.7946C11.813 12.5976 12.0338 13.1312 12.4571 13.536C12.8803 13.9409 13.3863 14.1433 13.9752 14.1433C14.7848 14.1433 15.4197 13.7384 15.8797 12.9288L17.0114 13.4808C16.7077 14.0513 16.2868 14.4975 15.7486 14.8195C15.2103 15.1415 14.6008 15.3026 13.92 15.3026C12.9263 15.3026 12.1074 14.9621 11.4634 14.2813C10.8193 13.6004 10.4973 12.7402 10.4973 11.7005C10.4973 10.67 10.8101 9.81207 11.4358 9.12662C12.0614 8.44117 12.8619 8.09845 13.8371 8.09845ZM13.8095 9.25773C13.3311 9.25773 12.9194 9.40494 12.5744 9.69936C12.2293 9.99378 12.0016 10.3894 11.8912 10.8862H15.7693C15.7325 10.417 15.5416 10.0283 15.1965 9.72006C14.8515 9.41184 14.3892 9.25773 13.8095 9.25773Z" fill="url(#paint1_radial_38_147)"/>
<path d="M19.2036 15.0606H17.9377V8.3186H19.1485V9.25421H19.2036C19.3962 8.924 19.692 8.64881 20.091 8.42867C20.4901 8.20852 20.8868 8.09845 21.2812 8.09845C21.7765 8.09845 22.2122 8.21311 22.5883 8.44243C22.9644 8.67175 23.2396 8.9882 23.4139 9.3918C23.9734 8.52957 24.7485 8.09845 25.7392 8.09845C26.5188 8.09845 27.1196 8.33694 27.5416 8.81392C27.9635 9.2909 28.1745 9.96969 28.1745 10.8503V15.0606H26.9087V11.0429C26.9087 10.41 26.794 9.95363 26.5647 9.67387C26.3354 9.3941 25.9501 9.25421 25.4089 9.25421C24.9228 9.25421 24.5146 9.4606 24.1844 9.87337C23.8542 10.2861 23.689 10.7723 23.689 11.3318V15.0606H22.4232V11.0429C22.4232 10.41 22.3086 9.95363 22.0792 9.67387C21.8499 9.3941 21.4647 9.25421 20.9235 9.25421C20.4373 9.25421 20.0291 9.4606 19.6989 9.87337C19.3687 10.2861 19.2036 10.7723 19.2036 11.3318V15.0606Z" fill="url(#paint2_radial_38_147)"/>
<path d="M30.889 5.9785C30.889 6.22656 30.8017 6.43788 30.6272 6.61244C30.4526 6.78701 30.2413 6.87429 29.9932 6.87429C29.7451 6.87429 29.5338 6.78701 29.3593 6.61244C29.1847 6.43788 29.0974 6.22656 29.0974 5.9785C29.0974 5.73043 29.1847 5.51912 29.3593 5.34455C29.5338 5.16999 29.7451 5.0827 29.9932 5.0827C30.2413 5.0827 30.4526 5.16999 30.6272 5.34455C30.8017 5.51912 30.889 5.73043 30.889 5.9785ZM30.6272 8.30756V15.0605H29.3593V8.30756H30.6272Z" fill="url(#paint3_linear_38_147)"/>
<path d="M40.2147 5.9785C40.2147 6.22656 40.1274 6.43788 39.9528 6.61244C39.7783 6.78701 39.567 6.87429 39.3189 6.87429C39.0708 6.87429 38.8595 6.78701 38.6849 6.61244C38.5104 6.43788 38.4231 6.22656 38.4231 5.9785C38.4231 5.73043 38.5104 5.51912 38.6849 5.34455C38.8595 5.16999 39.0708 5.0827 39.3189 5.0827C39.567 5.0827 39.7783 5.16999 39.9528 5.34455C40.1274 5.51912 40.2147 5.73043 40.2147 5.9785ZM39.9528 8.30756V15.0605H38.6849V8.30756H39.9528Z" fill="url(#paint4_radial_38_147)"/>
<path d="M31.7327 8.3186H32.9435V9.25421H32.9985C33.1911 8.924 33.487 8.64881 33.886 8.42867C34.285 8.20852 34.7 8.09845 35.1312 8.09845C35.9567 8.09845 36.5919 8.33465 37.0368 8.80704C37.4817 9.27944 37.7041 9.95134 37.7041 10.8228V15.0606H36.4383V10.9053C36.4108 9.80458 35.8558 9.25421 34.7734 9.25421C34.2689 9.25421 33.847 9.45831 33.5076 9.86649C33.1682 10.2747 32.9985 10.7631 32.9985 11.3318V15.0606H31.7327V8.3186Z" fill="url(#paint5_linear_38_147)"/>
<path d="M27.3631 6.25681C27.1394 4.78118 25.9812 3.62299 24.5056 3.39937C25.9812 3.17576 27.1394 2.01756 27.3631 0.541931C27.5867 2.01756 28.7449 3.17576 30.2205 3.39937C28.7449 3.62299 27.5867 4.78118 27.3631 6.25681Z" fill="#076EFF"/>
<defs>
<radialGradient id="paint0_radial_38_147" cx="0" cy="0" r="1" gradientUnits="userSpaceOnUse" gradientTransform="translate(-840.278 231.056) rotate(151.125) scale(1012.45 815.898)">
<stop stop-color="#5BAEFF"/>
<stop offset="1" stop-color="#9CBFFF"/>
</radialGradient>
<radialGradient id="paint1_radial_38_147" cx="0" cy="0" r="1" gradientUnits="userSpaceOnUse" gradientTransform="translate(-259.479 355.802) rotate(99.2039) scale(492 579.592)">
<stop stop-color="#409DFF"/>
<stop offset="1" stop-color="#64B0FF"/>
</radialGradient>
<radialGradient id="paint2_radial_38_147" cx="0" cy="0" r="1" gradientUnits="userSpaceOnUse" gradientTransform="translate(-183.643 513.249) rotate(99.4856) scale(1116.64 532.79)">
<stop stop-color="#177CFF"/>
<stop offset="1" stop-color="#4DA4FF"/>
</radialGradient>
<linearGradient id="paint3_linear_38_147" x1="116.683" y1="92.9768" x2="116.683" y2="1002.86" gradientUnits="userSpaceOnUse">
<stop stop-color="#076EFF"/>
<stop offset="1" stop-color="#3E93FF"/>
</linearGradient>
<radialGradient id="paint4_radial_38_147" cx="0" cy="0" r="1" gradientUnits="userSpaceOnUse" gradientTransform="translate(-223 -38.1549) rotate(21.4306) scale(417.544 2090.38)">
<stop stop-color="#1C7AFF"/>
<stop offset="1" stop-color="#8FB9FF"/>
</radialGradient>
<linearGradient id="paint5_linear_38_147" x1="110.657" y1="8.09844" x2="585.851" y2="595.333" gradientUnits="userSpaceOnUse">
<stop stop-color="#076EFF"/>
<stop offset="1" stop-color="#69A3FF"/>
</linearGradient>
</defs>
</svg>
