<svg width="29" height="29" viewBox="0 0 29 29" fill="none" xmlns="http://www.w3.org/2000/svg">
<path d="M1.68188 20.9014C2.67873 22.8651 4.10833 24.5768 5.86293 25.9076C7.61753 27.2385 9.65135 28.1536 11.8111 28.5841C13.9708 29.0146 16.2 28.9492 18.3308 28.3928C20.4616 27.8364 22.4382 26.8036 24.1118 25.3722V21.735H19.4136C15.3975 24.3871 8.72912 23.402 6.45582 17.1884" fill="#34A853"/>
<path d="M24.1118 25.3722C25.7598 23.8399 27.0166 21.7426 27.7295 19.3348C28.4424 16.9271 28.5808 14.3124 28.128 11.8082H14.564V17.4156H22.2932C21.9396 19.2848 20.9797 20.7246 19.4137 21.7349" fill="#4285F4"/>
<path d="M1.68181 20.9014C0.685634 18.8758 0.168945 16.6631 0.168945 14.4224C0.168945 12.1818 0.685634 9.96909 1.68181 7.94354L6.45574 11.6566C5.84953 13.5258 5.84953 15.3697 6.45574 17.1883" fill="#FBBC02"/>
<path d="M6.45581 11.6566C8.1229 6.42804 15.2459 3.39697 20.0198 7.86779L24.1876 3.77585C18.277 -1.9074 6.75892 -1.68007 1.68188 7.94357" fill="#EA4335"/>
</svg>
