<svg width="23" height="21" viewBox="0 0 23 21" fill="none" xmlns="http://www.w3.org/2000/svg">
<path d="M3.67742 19.7577C4.02826 19.9526 4.3986 20.0501 4.78842 20.0501H17.7696C18.1204 20.0501 18.4908 19.9526 18.8806 19.7577V13.6765H2.09863" fill="#4285F4"/>
<path d="M7.77051 0.461375C8.12135 0.266462 8.51117 0.169006 8.93998 0.169006H13.6179C14.0857 0.169006 14.4755 0.266462 14.7873 0.461375V6.54264H10.8111" fill="#188038"/>
<path d="M0.168945 13.6764C0.168945 13.2866 0.266401 12.9163 0.461314 12.5654L6.89342 1.39694C7.12731 0.968137 7.41968 0.656277 7.77052 0.461365L11.2789 6.54263L7.06884 13.8518" fill="#34A853"/>
<path d="M11.2791 6.54263L15.4892 13.8518L22.3891 13.6764C22.3891 13.2086 22.2331 12.7408 21.9213 12.273L15.6646 1.39694C15.4697 1.00712 15.1773 0.695259 14.7875 0.461365" fill="#FBBC04"/>
<path d="M7.16906 13.6765H0.168945C0.168945 13.9883 0.227419 14.2807 0.344366 14.5536L2.68331 18.6467C2.95619 19.1535 3.28754 19.5238 3.67737 19.7577" fill="#1967D2"/>
<path d="M18.8805 19.7577C19.2314 19.5628 19.5432 19.2315 19.8161 18.7637L22.0381 14.9044C22.272 14.5146 22.3889 14.1053 22.3889 13.6765H15.3896" fill="#EA4335"/>
</svg>
