<svg width="23" height="15" viewBox="0 0 23 15" fill="none" xmlns="http://www.w3.org/2000/svg">
<path d="M8.81041 4.12275L13.4753 6.91626L16.2549 5.74623C16.8199 5.50219 17.4289 5.37669 18.0443 5.37751C18.1471 5.37751 18.2485 5.38237 18.3492 5.38862C18.0151 4.08543 17.3097 2.90735 16.3186 1.99757C15.3276 1.08778 14.0936 0.485479 12.7666 0.263869C11.4397 0.042258 10.077 0.210883 8.84405 0.749246C7.61115 1.28761 6.56118 2.17253 5.82178 3.29644L5.8926 3.29435C6.92343 3.293 7.93408 3.57994 8.81041 4.12275Z" fill="#0364B8"/>
<path d="M8.811 4.12209C7.9344 3.5794 6.92349 3.29269 5.8925 3.29438L5.82168 3.29646C4.81274 3.30908 3.82631 3.59637 2.96837 4.12746C2.11043 4.65854 1.4134 5.41336 0.952191 6.31079C0.490977 7.20823 0.283004 8.21438 0.350618 9.22113C0.418231 10.2279 0.758874 11.1972 1.33595 12.0249L5.4481 10.2938L7.27711 9.5244L11.3483 7.81066L13.4745 6.91629L8.811 4.12209Z" fill="#0078D4"/>
<path d="M18.349 5.38861C18.2475 5.38152 18.1459 5.37781 18.0442 5.3775C17.4289 5.377 16.8201 5.50273 16.2554 5.74692L13.4751 6.91626L14.2813 7.39886L16.9234 8.98136L18.0761 9.67158L22.0181 12.0325C22.3763 11.3676 22.5619 10.6235 22.558 9.8683C22.554 9.11309 22.3607 8.37095 21.9956 7.70985C21.6305 7.04875 21.1053 6.48983 20.4682 6.08429C19.8311 5.67875 19.1025 5.43955 18.349 5.38861Z" fill="#1490DF"/>
<path d="M18.0761 9.67158L16.9234 8.98136L14.2813 7.39816L13.4758 6.91626L11.3489 7.81063L7.27771 9.52437L5.44801 10.2937L1.33447 12.0248C1.84577 12.7599 2.52738 13.3602 3.3211 13.7746C4.11481 14.189 4.99704 14.4051 5.89242 14.4045H18.0442C18.859 14.4048 19.6587 14.1844 20.3584 13.7668C21.0581 13.3492 21.6316 12.7499 22.0181 12.0325L18.0761 9.67158Z" fill="#28A8EA"/>
</svg>
