<svg width="33" height="32" viewBox="0 0 33 32" fill="none" xmlns="http://www.w3.org/2000/svg">
<path d="M7.54186 7.3307C8.14249 6.74973 8.14285 5.78688 7.54265 5.20546L6.97111 4.6518C6.39688 4.09554 5.48438 4.09681 4.9117 4.65467C4.31621 5.23476 4.31621 6.19172 4.9117 6.77181L5.4817 7.32706C6.05451 7.88504 6.96709 7.88665 7.54186 7.3307ZM4.50002 16C4.50002 15.193 3.84582 14.5388 3.03883 14.5388H1.4612C0.654211 14.5388 1.52588e-05 15.193 1.52588e-05 16C1.52588e-05 16.807 0.654211 17.4612 1.4612 17.4612H3.03883C3.84582 17.4612 4.50002 16.807 4.50002 16ZM18 1.5C18 0.671573 17.3284 0 16.5 0C15.6716 0 15 0.671573 15 1.5V2.8105C15 3.63893 15.6716 4.3105 16.5 4.3105C17.3284 4.3105 18 3.63893 18 2.8105V1.5ZM28.0898 6.77038C28.6845 6.19107 28.6845 5.23541 28.0898 4.65611C27.5168 4.09788 26.6033 4.09788 26.0302 4.65611L25.4602 5.21136C24.8655 5.79066 24.8655 6.74633 25.4602 7.32563C26.0333 7.88385 26.9468 7.88385 27.5198 7.32563L28.0898 6.77038ZM25.4375 24.6819C24.8466 25.2575 24.8452 26.2068 25.4346 26.7841L26.018 27.3556C26.5891 27.915 27.5022 27.9163 28.0748 27.3585C28.669 26.7797 28.6677 25.8244 28.0719 25.2473L27.4853 24.679C26.9143 24.1259 26.007 24.1272 25.4375 24.6819ZM29.9612 14.5388C29.1542 14.5388 28.5 15.193 28.5 16C28.5 16.807 29.1542 17.4612 29.9612 17.4612H31.5388C32.3458 17.4612 33 16.807 33 16C33 15.193 32.3458 14.5388 31.5388 14.5388H29.9612ZM16.5 7.23288C11.535 7.23288 7.50002 11.1635 7.50002 16C7.50002 20.8365 11.535 24.7671 16.5 24.7671C21.465 24.7671 25.5 20.8365 25.5 16C25.5 11.1635 21.465 7.23288 16.5 7.23288ZM15 30.5C15 31.3284 15.6716 32 16.5 32C17.3284 32 18 31.3284 18 30.5V29.1895C18 28.3611 17.3284 27.6895 16.5 27.6895C15.6716 27.6895 15 28.3611 15 29.1895V30.5ZM4.90435 25.2295C4.31238 25.8093 4.31371 26.7628 4.90729 27.341C5.48152 27.9004 6.39727 27.8991 6.96994 27.3382L7.54568 26.7742C8.13765 26.1943 8.13632 25.2408 7.54274 24.6626C6.96851 24.1033 6.05277 24.1045 5.48009 24.6655L4.90435 25.2295Z" fill="white"/>
</svg>
