<svg width="28" height="29" viewBox="0 0 28 29" fill="none" xmlns="http://www.w3.org/2000/svg">
<path d="M27.3789 13.6523C27.6866 14.3293 27.8819 15.0529 27.9618 15.7911C28.0387 16.5293 28.0002 17.2763 27.8405 18.0028C27.6837 18.7294 27.4115 19.4268 27.0328 20.0687C26.7843 20.4976 26.4914 20.9003 26.1541 21.2708C25.8198 21.6385 25.4471 21.9711 25.0417 22.2629C24.6335 22.5547 24.1986 22.7998 23.7371 23.0011C23.2785 23.1996 22.7992 23.3513 22.3081 23.4505C22.0773 24.1566 21.7342 24.8248 21.2904 25.4259C20.8496 26.027 20.3141 26.5551 19.7047 26.9898C19.0952 27.4275 18.4207 27.766 17.7047 27.9936C16.9888 28.2241 16.2403 28.3379 15.4859 28.3379C14.9859 28.3408 14.4829 28.2883 13.9918 28.1891C13.5037 28.087 13.0244 27.9323 12.5659 27.731C12.1073 27.5296 11.6724 27.2787 11.2671 26.9869C10.8647 26.6951 10.492 26.3596 10.1606 25.989C9.42099 26.1466 8.66362 26.1845 7.91513 26.1087C7.16663 26.0299 6.43293 25.8373 5.74361 25.5338C5.05724 25.2333 4.42117 24.8248 3.86202 24.3258C3.30286 23.8269 2.82655 23.2433 2.45082 22.6014C2.19935 22.1725 1.99226 21.7202 1.83546 21.2504C1.67866 20.7806 1.57511 20.2963 1.52186 19.8032C1.46861 19.313 1.47157 18.8169 1.52482 18.3238C1.57807 17.8336 1.68754 17.3492 1.84434 16.8795C1.3414 16.328 0.927209 15.7007 0.619527 15.0237C0.314804 14.3439 0.116587 13.6231 0.0396662 12.8849C-0.0402127 12.1467 0.00120597 11.3997 0.158005 10.6732C0.314804 9.94664 0.586984 9.24927 0.965669 8.60734C1.21418 8.17842 1.50707 7.77284 1.84138 7.40519C2.17569 7.03754 2.55141 6.7049 2.95672 6.41311C3.36203 6.12133 3.79989 5.87331 4.25845 5.6749C4.71997 5.47356 5.19925 5.32475 5.69035 5.22555C5.92111 4.51651 6.2643 3.85124 6.70511 3.25016C7.14888 2.64908 7.68437 2.12095 8.29381 1.68327C8.90326 1.24851 9.57779 0.910034 10.2937 0.679524C11.0097 0.451931 11.7582 0.335216 12.5126 0.338134C13.0126 0.335216 13.5155 0.38482 14.0066 0.486945C14.4977 0.58907 14.977 0.740799 15.4356 0.942131C15.8941 1.14638 16.329 1.3944 16.7343 1.68618C17.1397 1.98089 17.5124 2.31352 17.8438 2.68409C18.5804 2.52945 19.3378 2.49151 20.0863 2.56738C20.8348 2.64324 21.5655 2.83874 22.2549 3.13928C22.9412 3.44273 23.5773 3.84832 24.1364 4.34727C24.6956 4.84331 25.1719 5.42396 25.5476 6.06881C25.7991 6.49481 26.0062 6.94708 26.163 7.41978C26.3198 7.88955 26.4263 8.37391 26.4766 8.86703C26.5299 9.36015 26.5299 9.85619 26.4736 10.3493C26.4204 10.8424 26.3109 11.3268 26.1541 11.7966C26.66 12.348 27.0713 12.9725 27.3789 13.6523ZM17.5213 26.1087C18.1662 25.846 18.752 25.458 19.2461 24.9707C19.7402 24.4834 20.1336 23.9057 20.3999 23.2667C20.6662 22.6306 20.8052 21.9478 20.8052 21.2592V14.7524C20.8032 14.7465 20.8013 14.7397 20.7993 14.7319C20.7973 14.7261 20.7944 14.7203 20.7904 14.7144C20.7865 14.7086 20.7815 14.7037 20.7756 14.6998C20.7697 14.694 20.7638 14.6901 20.7579 14.6882L18.3704 13.3284V21.1891C18.3704 21.2679 18.3585 21.3496 18.3378 21.4255C18.3171 21.5043 18.2875 21.5772 18.2461 21.6472C18.2047 21.7173 18.1574 21.7815 18.0982 21.8369C18.0407 21.8934 17.9761 21.9425 17.9059 21.9828L12.2523 25.2012C12.2049 25.2304 12.125 25.2712 12.0836 25.2946C12.3173 25.4901 12.5718 25.6622 12.838 25.8139C13.1073 25.9657 13.3853 26.0941 13.6753 26.1991C13.9652 26.3012 14.264 26.38 14.5658 26.4325C14.8705 26.4851 15.1782 26.5113 15.4859 26.5113C16.1841 26.5113 16.8763 26.3742 17.5213 26.1087ZM4.05728 21.691C4.40933 22.2892 4.87381 22.8086 5.42705 23.2287C5.98324 23.6489 6.6134 23.9553 7.28793 24.1333C7.96246 24.3113 8.66658 24.3579 9.35886 24.2675C10.0511 24.177 10.7168 23.9553 11.3233 23.611L17.0391 20.3576L17.0539 20.343C17.0578 20.3391 17.0608 20.3332 17.0627 20.3255C17.0667 20.3196 17.0696 20.3138 17.0716 20.308V17.5652L10.1724 21.5014C10.1014 21.5422 10.0275 21.5714 9.95056 21.5947C9.87068 21.6152 9.7908 21.6239 9.70796 21.6239C9.62809 21.6239 9.54821 21.6152 9.46833 21.5947C9.39141 21.5714 9.31449 21.5422 9.24348 21.5014L3.58984 18.28C3.53954 18.2509 3.46558 18.2071 3.42416 18.1808C3.37091 18.4814 3.34428 18.7848 3.34428 19.0883C3.34428 19.3917 3.37387 19.6952 3.42712 19.9957C3.48037 20.2934 3.56321 20.5881 3.66676 20.874C3.77326 21.16 3.90343 21.4342 4.05728 21.6969V21.691ZM2.57212 9.52355C2.22302 10.1217 1.99818 10.7811 1.90646 11.4639C1.81475 12.1467 1.86209 12.8382 2.04255 13.5064C2.22302 14.1717 2.53366 14.7932 2.95968 15.3418C3.3857 15.8874 3.91527 16.3455 4.5188 16.6898L10.2316 19.9461C10.2375 19.9481 10.2444 19.95 10.2523 19.952H10.273C10.2809 19.952 10.2878 19.95 10.2937 19.9461C10.2997 19.9442 10.3056 19.9413 10.3115 19.9374L12.7079 18.5718L5.80869 14.6444C5.74065 14.6035 5.67556 14.5539 5.61639 14.4985C5.55907 14.4418 5.50935 14.378 5.46847 14.3088C5.43001 14.2388 5.39746 14.1659 5.37676 14.0871C5.35605 14.0112 5.34421 13.9324 5.34717 13.8507V7.22428C5.05724 7.32932 4.77619 7.45771 4.50992 7.60944C4.24366 7.76408 3.99219 7.93915 3.75551 8.13465C3.52179 8.33015 3.30286 8.54607 3.10465 8.7795C2.90643 9.01001 2.73188 9.26094 2.57804 9.52355H2.57212ZM22.1957 14.0287C22.2667 14.0696 22.3318 14.1163 22.3909 14.1746C22.4472 14.2301 22.4975 14.2942 22.5389 14.3643C22.5773 14.4343 22.6099 14.5102 22.6306 14.586C22.6483 14.6648 22.6602 14.7436 22.6572 14.8253V21.4518C23.6069 21.1074 24.4353 20.5035 25.0477 19.7098C25.663 18.9161 26.0328 17.9678 26.1186 16.9758C26.2044 15.9837 26.0032 14.9858 25.5358 14.1017C25.0684 13.2176 24.3554 12.4823 23.4797 11.9862L17.7668 8.72989C17.7609 8.72795 17.754 8.726 17.7461 8.72406H17.7254C17.7195 8.726 17.7126 8.72795 17.7047 8.72989C17.6988 8.73184 17.6929 8.73476 17.687 8.73865L15.3024 10.0984L22.2016 14.0287H22.1957ZM24.5773 10.4981H24.5743V10.501L24.5773 10.4981ZM24.5743 10.4952C24.7459 9.5148 24.6305 8.50522 24.24 7.58609C23.8524 6.66697 23.2045 5.87623 22.3762 5.30433C21.5478 4.73535 20.5715 4.40855 19.5626 4.36478C18.5508 4.32393 17.5509 4.56611 16.6752 5.06215L10.9624 8.31556C10.9564 8.31945 10.9515 8.32431 10.9476 8.33015L10.9357 8.34765C10.9338 8.35349 10.9318 8.3603 10.9298 8.36808C10.9278 8.37392 10.9269 8.38072 10.9269 8.3885V11.1079L17.826 7.17759C17.897 7.13674 17.9739 7.10756 18.0509 7.08422C18.1307 7.0638 18.2106 7.05504 18.2905 7.05504C18.3733 7.05504 18.4532 7.0638 18.5331 7.08422C18.61 7.10756 18.684 7.13674 18.755 7.17759L24.4086 10.3989C24.4589 10.4281 24.5329 10.4689 24.5743 10.4952ZM9.62513 7.48397C9.62513 7.40519 9.63696 7.3264 9.65767 7.24762C9.67838 7.17176 9.70796 7.09589 9.74938 7.02586C9.7908 6.95875 9.83814 6.89456 9.89731 6.8362C9.95352 6.78076 10.0186 6.73116 10.0896 6.69323L15.7433 3.47483C15.7965 3.44273 15.8705 3.40189 15.9119 3.38146C15.1368 2.74245 14.1901 2.33395 13.1871 2.20848C12.1842 2.0801 11.1665 2.23766 10.2523 2.66075C9.3352 3.08384 8.56007 3.75786 8.01867 4.59821C7.47727 5.44147 7.1903 6.41603 7.1903 7.41394V13.9208C7.19227 13.9285 7.19425 13.9354 7.19622 13.9412C7.19819 13.947 7.20115 13.9529 7.20509 13.9587C7.20904 13.9645 7.21397 13.9704 7.21989 13.9762C7.22383 13.9801 7.22975 13.984 7.23764 13.9879L9.62513 15.3476V7.48397ZM10.9209 16.0829L13.9948 17.8336L17.0686 16.0829V12.5844L13.9978 10.8337L10.9239 12.5844L10.9209 16.0829Z" fill="black"/>
</svg>
