<svg width="26" height="26" viewBox="0 0 26 26" fill="none" xmlns="http://www.w3.org/2000/svg">
<path d="M0 26L1.83701 19.3207C0.277122 16.6233 -0.249719 13.4549 0.353799 10.4008C0.957316 7.34672 2.65042 4.61326 5.12038 2.70532C7.59034 0.797377 10.6703 -0.156146 13.7913 0.0208734C16.9124 0.197893 19.8636 1.49349 22.1 3.66837C24.3364 5.84325 25.7068 8.75046 25.9581 11.853C26.2094 14.9556 25.3246 18.0439 23.4672 20.5475C21.6097 23.0511 18.9051 24.8009 15.8529 25.4736C12.8007 26.1464 9.6071 25.6966 6.86199 24.2075M3.10934 22.9413L7.18364 21.8743C9.42586 23.324 12.13 23.8913 14.7694 23.4658C17.4089 23.0404 19.7947 21.6526 21.4625 19.5727C23.1302 17.4929 23.9604 14.8698 23.7914 12.2142C23.6225 9.55864 22.4664 7.06071 20.5484 5.20678C18.6304 3.35286 16.0876 2.27564 13.4153 2.1849C10.743 2.09415 8.13244 2.99636 6.09187 4.71586C4.05131 6.43535 2.72683 8.84905 2.37634 11.487C2.02586 14.1249 2.67444 16.7982 4.19582 18.9864M10.8434 9.9526C10.9863 10.3083 10.8434 10.6639 10.0571 11.5317C9.62823 11.9585 9.77119 12.1008 10.5289 13.1678C11.2865 14.2347 12.5303 15.2306 13.6739 15.7641C14.8176 16.2976 14.7461 16.262 15.225 15.693C16.2972 14.4837 16.0113 14.1992 17.0835 14.6829L19.0134 15.6076C19.5853 15.8921 19.6138 15.8921 19.621 16.2478C19.6281 16.6034 19.4995 17.5282 19.1206 17.9265C18.7418 18.3248 17.3337 19.6906 14.8319 18.7801C12.3301 17.8696 10.6146 17.1441 7.75548 13.3029C4.89631 9.46179 7.64111 7.18556 8.0128 7.04329C8.38449 6.90103 8.51315 6.9366 9.22795 6.95082C9.41856 6.95082 9.58534 7.06938 9.7283 7.30648" fill="#25D366"/>
</svg>
